/vscmnt/brussel_pixiu_data/_data_brussel/112/vsc11236/PredSimResults/SUBJ04mtu3D/worker5.mot
version=1
nRows=11
nColumns=50
inDegrees=yes
endheader
                time	         pelvis_tilt	         pelvis_list	     pelvis_rotation	           pelvis_tx	           pelvis_ty	           pelvis_tz	       hip_flexion_r	     hip_adduction_r	      hip_rotation_r	        knee_angle_r	       ankle_angle_r	         mtp_angle_r	       hip_flexion_l	     hip_adduction_l	      hip_rotation_l	        knee_angle_l	       ankle_angle_l	         mtp_angle_l	    lumbar_extension	      lumbar_bending	     lumbar_rotation	 ercspn_r/activation	 intobl_r/activation	 extobl_r/activation	    abd_r/activation	    add_r/activation	hamstrings_r/activation	bifemsh_r/activation	glut_max_r/activation	iliopsoas_r/activation	rect_fem_r/activation	  vasti_r/activation	gastroc_r/activation	 soleus_r/activation	tib_ant_r/activation	 ercspn_l/activation	 intobl_l/activation	 extobl_l/activation	    abd_l/activation	    add_l/activation	hamstrings_l/activation	bifemsh_l/activation	glut_max_l/activation	iliopsoas_l/activation	rect_fem_l/activation	  vasti_l/activation	gastroc_l/activation	 soleus_l/activation	tib_ant_l/activation	
          2.22102681	         -2.90406384	          0.70203052	        -13.22955759	          2.08776520	          0.87611541	          0.01412391	        -10.80242159	         -2.76242739	         -4.60982333	        -14.79026334	         12.16671421	         28.18528546	         27.25369632	         -2.65543057	         -9.38747853	         -3.90100605	          7.85672167	          0.23699769	        -13.04456646	          2.72855189	          6.42223186	          0.01485297	          0.01000096	          0.01000350	          0.03871481	          0.01000956	          0.01890344	          0.24588892	          0.01553389	          0.01000541	          0.01000354	          0.01000177	          0.34206141	          0.31333352	          0.01000094	          0.04154257	          0.22475255	          0.02354509	          0.01000040	          0.18531782	          0.10148584	          0.09048838	          0.03011021	          0.16049853	          0.01014051	          0.01000104	          0.01944940	          0.01554299	          0.16664449	
          2.23583366	         -2.96366942	          0.73496114	        -12.79266577	          2.10621711	          0.87360280	          0.01332832	        -11.68725272	         -3.01025094	         -5.52147084	        -15.34903316	         11.40506902	         29.74222039	         27.21882510	         -2.37917555	         -9.60771147	         -5.58520344	          7.09668529	          0.22713596	        -12.47782648	          2.10344334	          6.45120454	          0.03785474	          0.01000041	          0.01000167	          0.03105190	          0.01000493	          0.01929320	          0.19788635	          0.01245965	          0.06834761	          0.01000900	          0.01000198	          0.32063388	          0.29022577	          0.01000044	          0.03332436	          0.18586570	          0.01888490	          0.05005159	          0.14864306	          0.09051035	          0.07258164	          0.07820496	          0.12873052	          0.01005403	          0.01000127	          0.01560016	          0.01246692	          0.21820010	
          2.25064050	         -3.01318450	          0.80537226	        -12.27856197	          2.12474004	          0.87170133	          0.01239815	        -12.30999722	         -3.30328295	         -6.46417233	        -16.37584371	         10.38989439	         31.37009778	         27.10726594	         -2.06042335	         -9.87439176	         -7.10831733	          6.23932961	          0.20252163	        -11.91915906	          1.41311047	          6.45432883	          0.06235106	          0.01000042	          0.01000128	          0.02490573	          0.01000467	          0.02075003	          0.15872810	          0.01000118	          0.07836573	          0.01000663	          0.01000160	          0.29093121	          0.26213631	          0.01000050	          0.04559822	          0.14907686	          0.01514717	          0.08628985	          0.13564046	          0.08095163	          0.05821818	          0.08363177	          0.10325047	          0.01007812	          0.04629236	          0.01251312	          0.01000370	          0.25488218	
          2.26544735	         -3.05476299	          0.90445413	        -11.70217186	          2.14312142	          0.87066355	          0.01132500	        -12.60481906	         -3.64810850	         -7.42773454	        -17.94169846	          9.07526461	         32.98970518	         26.90558661	         -1.70161296	        -10.17426424	         -8.49212988	          5.54606886	          0.17510728	        -11.39211567	          0.67545809	          6.43182609	          0.08344972	          0.01000057	          0.01000126	          0.01997609	          0.01000679	          0.02187329	          0.12731569	          0.01000134	          0.06286228	          0.01000296	          0.01000126	          0.24390911	          0.22895556	          0.01000048	          0.04087851	          0.11956962	          0.01214951	          0.11568201	          0.12400990	          0.07444375	          0.04669825	          0.06749579	          0.08281379	          0.01006288	          0.07932884	          0.01003809	          0.01000227	          0.27960469	
          2.28025419	         -3.08963503	          1.02374915	        -11.07931061	          2.16125061	          0.87054991	          0.01011913	        -12.56436058	         -4.05040140	         -8.40357200	        -20.03776701	          7.50469646	         34.37495991	         26.57889993	         -1.30141779	        -10.45138246	         -9.69097737	          5.13018705	          0.15266661	        -10.90593648	         -0.09275013	          6.38711326	          0.10591612	          0.01000112	          0.01000128	          0.01602219	          0.03835951	          0.02689263	          0.10212131	          0.01000114	          0.05042775	          0.01000194	          0.01000124	          0.19563212	          0.18405318	          0.01000039	          0.03517121	          0.09590283	          0.01000178	          0.14154610	          0.11511885	          0.07097346	          0.03745893	          0.06450404	          0.06642222	          0.01005519	          0.09729487	          0.01017833	          0.01124254	          0.27771283	
          2.29506104	         -3.11941947	          1.15164538	        -10.42359224	          2.17900574	          0.87133633	          0.00880485	        -12.19334115	         -4.50872120	         -9.39798081	        -22.63732054	          5.79527353	         35.16813447	         26.12057834	         -0.86105177	        -10.63369159	        -10.66639388	          4.94240275	          0.13803021	        -10.47021992	         -0.87406443	          6.32447164	          0.11489371	          0.01000213	          0.01000144	          0.01285092	          0.10682552	          0.03937710	          0.08193150	          0.01000060	          0.04966671	          0.01000116	          0.01000054	          0.15691025	          0.14762303	          0.01000084	          0.02822014	          0.07692053	          0.01000273	          0.15307547	          0.11632943	          0.07346760	          0.03004842	          0.06720784	          0.05327509	          0.01004169	          0.11288297	          0.01123955	          0.01291036	          0.26894106	
          2.30986788	         -3.14574809	          1.26082796	         -9.74143787	          2.19630653	          0.87292859	          0.00742610	        -11.50918046	         -5.00637388	        -10.45866526	        -25.71793698	          4.14271750	         34.91905135	         25.51287624	         -0.40537237	        -10.69952084	        -11.36725097	          4.90926618	          0.13056133	        -10.09316156	         -1.63738345	          6.24305162	          0.10365085	          0.01000285	          0.01000174	          0.01030739	          0.14395961	          0.03712252	          0.06573447	          0.01000056	          0.05831088	          0.01000113	          0.01000054	          0.12585276	          0.11840349	          0.01000044	          0.02263772	          0.06169551	          0.01000305	          0.15738177	          0.12624652	          0.07898589	          0.02410454	          0.05628243	          0.04273022	          0.01003134	          0.11903254	          0.01040342	          0.01360124	          0.25321327	
          2.32467473	         -3.16900701	          1.32132959	         -9.03376151	          2.21313800	          0.87517404	          0.00602395	        -10.53534399	         -5.53241170	        -11.58686400	        -29.23137920	          2.51298884	         33.63925351	         24.75005221	          0.02795435	        -10.67204933	        -11.78056459	          4.97855237	          0.12907243	         -9.77829061	         -2.35033297	          6.13547146	          0.08723000	          0.01000285	          0.01000265	          0.01000033	          0.17532634	          0.04098147	          0.06190669	          0.01000054	          0.07571977	          0.01000099	          0.01000038	          0.10094282	          0.09496744	          0.01000052	          0.01815851	          0.04948410	          0.01000341	          0.15720661	          0.12347784	          0.08601564	          0.01933691	          0.04918617	          0.03427254	          0.01002339	          0.11828118	          0.01002264	          0.01231818	          0.23610751	
          2.33948157	         -3.18832774	          1.30882949	         -8.29971497	          2.22951300	          0.87789069	          0.00463626	         -9.31339975	         -6.07351736	        -12.75439268	        -33.05017530	          0.73991352	         31.58486208	         23.84461855	          0.40109291	        -10.58570220	        -11.93024624	          5.10974495	          0.13217011	         -9.52601981	         -2.98760548	          5.99212383	          0.07335225	          0.01000253	          0.01000458	          0.01000047	          0.20010432	          0.04414916	          0.07755914	          0.01000057	          0.08668746	          0.01000088	          0.01000026	          0.08096412	          0.07617018	          0.01000039	          0.01456551	          0.03968976	          0.01000336	          0.15356544	          0.09905881	          0.09226822	          0.01551303	          0.04898803	          0.02748893	          0.01001811	          0.11349738	          0.01000788	          0.01003662	          0.22074587	
          2.35428842	         -3.20161967	          1.20820862	         -7.53732387	          2.24545454	          0.88089857	          0.00328928	         -7.89767326	         -6.61372248	        -13.90009358	        -37.03576150	         -1.22357958	         28.87357679	         22.82381327	          0.68491790	        -10.46686322	        -11.86513656	          5.26517482	          0.13915382	         -9.33469408	         -3.53264890	          5.80413834	          0.07557186	          0.01000213	          0.02501853	          0.01000050	          0.20526145	          0.04708865	          0.09556631	          0.01000064	          0.08133150	          0.01000081	          0.01000019	          0.06494150	          0.06109353	          0.01873012	          0.01168403	          0.03183402	          0.01000290	          0.14692143	          0.07945695	          0.09596302	          0.01244756	          0.04759440	          0.02204803	          0.01001541	          0.10575866	          0.01000330	          0.01000444	          0.20700419	
          2.36909526	         -3.20584262	          1.02300759	         -6.74596741	          2.26097616	          0.88401582	          0.00198443	         -6.36075056	         -7.12685846	        -14.93063394	        -41.06426142	         -3.02335018	         25.24039578	         21.73171270	          0.87442036	        -10.30791067	        -11.65932351	          5.42401483	          0.14837266	         -9.20227976	         -3.98307162	          5.56955891	          0.11519686	          0.03457910	          0.09319335	          0.01000129	          0.16463758	          0.03793529	          0.07701046	          0.01000230	          0.06524731	          0.01000118	          0.01000023	          0.07494117	          0.04900109	          0.09189990	          0.01000279	          0.02553315	          0.01000224	          0.12838684	          0.06373274	          0.09202186	          0.01001353	          0.04186261	          0.01768410	          0.01001637	          0.10254244	          0.01000277	          0.01000458	          0.19483774	
